<?xml version="1.0" encoding="iso-8859-1"?>
<!-- Uploaded to: SVG Repo, www.svgrepo.com, Generator: SVG Repo Mixer Tools -->
<svg height="800px" width="800px" version="1.1" id="Layer_1" xmlns="http://www.w3.org/2000/svg" xmlns:xlink="http://www.w3.org/1999/xlink" 
	 viewBox="0 0 512 512" xml:space="preserve">
<g transform="translate(1 1)">
	<g>
		<path style="fill:#00DA6C;" d="M118.467,50.2c0,23.893-18.773,42.667-42.667,42.667S33.133,74.093,33.133,50.2
			S51.907,7.533,75.8,7.533S118.467,26.307,118.467,50.2"/>
		<path style="fill:#00DA6C;" d="M127,229.4H24.6v-51.2c0-28.16,23.04-51.2,51.2-51.2s51.2,23.04,51.2,51.2V229.4z"/>
	</g>
	<path style="fill:#FFE100;" d="M16.067,263.533C16.067,395.8,122.733,502.467,255,502.467S493.933,395.8,493.933,263.533H16.067z"
		/>
	<path style="fill:#FFA800;" d="M468.333,263.533c0,128-99.84,232.107-226.133,238.933c4.267,0,8.533,0,12.8,0
		c132.267,0,238.933-106.667,238.933-238.933H468.333z"/>
	<g>
		<path style="fill:#00DA6C;" d="M297.667,50.2c0,23.893-18.773,42.667-42.667,42.667S212.333,74.093,212.333,50.2
			S231.107,7.533,255,7.533S297.667,26.307,297.667,50.2"/>
		<path style="fill:#00DA6C;" d="M306.2,229.4H203.8v-51.2c0-28.16,23.04-51.2,51.2-51.2s51.2,23.04,51.2,51.2V229.4z"/>
		<path style="fill:#00DA6C;" d="M485.4,50.2c0,23.893-18.773,42.667-42.667,42.667c-23.893,0-42.667-18.773-42.667-42.667
			S418.84,7.533,442.733,7.533C466.627,7.533,485.4,26.307,485.4,50.2"/>
		<path style="fill:#00DA6C;" d="M493.933,229.4h-102.4v-51.2c0-28.16,23.04-51.2,51.2-51.2c28.16,0,51.2,23.04,51.2,51.2V229.4z"/>
	</g>
	<g>
		<path style="fill:#00AD55;" d="M442.733,7.533c-4.267,0-8.533,0.853-12.8,2.56C447,15.213,459.8,31.427,459.8,50.2
			S447,85.187,429.933,90.307c4.267,1.707,8.533,2.56,12.8,2.56c23.893,0,42.667-18.773,42.667-42.667S466.627,7.533,442.733,7.533"
			/>
		<path style="fill:#00AD55;" d="M442.733,127c-4.267,0-8.533,0.853-12.8,1.707c22.187,5.973,38.4,25.6,38.4,49.493v51.2h25.6v-51.2
			C493.933,150.04,470.893,127,442.733,127"/>
	</g>
	<g>
		<path style="fill:#FFFFFF;" d="M41.667,263.533c0,128,99.84,232.107,226.133,238.933c-4.267,0-8.533,0-12.8,0
			c-132.267,0-238.933-106.667-238.933-238.933H41.667z"/>
		<path style="fill:#FFFFFF;" d="M75.8,7.533c4.267,0,8.533,0.853,12.8,2.56C71.533,15.213,58.733,31.427,58.733,50.2
			s12.8,34.987,29.867,40.107c-4.267,1.707-8.533,2.56-12.8,2.56c-23.893,0-42.667-18.773-42.667-42.667S51.907,7.533,75.8,7.533"/>
		<path style="fill:#FFFFFF;" d="M75.8,127c4.267,0,8.533,0.853,12.8,1.707c-22.187,5.973-38.4,25.6-38.4,49.493v51.2H24.6v-51.2
			C24.6,150.04,47.64,127,75.8,127"/>
	</g>
	<path d="M255,511c-5.12,0-8.533-3.413-8.533-8.533V263.533c0-5.12,3.413-8.533,8.533-8.533s8.533,3.413,8.533,8.533v238.933
		C263.533,507.587,260.12,511,255,511z"/>
	<path d="M255,511C118.467,511,7.533,400.067,7.533,263.533c0-5.12,3.413-8.533,8.533-8.533h477.867c5.12,0,8.533,3.413,8.533,8.533
		C502.467,400.067,391.533,511,255,511z M24.6,272.067c4.267,122.88,105.813,221.867,230.4,221.867s226.133-98.987,230.4-221.867
		H24.6z"/>
	<path d="M428.227,436.76c-1.707,0-3.413-0.853-5.12-1.707C373.613,400.92,315.587,383,255,383s-118.613,17.92-168.107,52.053
		c-4.267,2.56-9.387,1.707-11.947-2.56c-2.56-4.267-1.707-9.387,2.56-11.947C129.56,384.707,191,365.933,255,365.933
		s125.44,18.773,178.347,54.613c4.267,2.56,5.12,7.68,2.56,11.947C433.347,435.053,430.787,436.76,428.227,436.76z"/>
	<path d="M246.467,511c-1.707,0-3.413-0.853-5.12-1.707C168.813,450.413,127,360.813,127,263.533c0-5.12,3.413-8.533,8.533-8.533
		s8.533,3.413,8.533,8.533c0,92.16,39.253,176.64,107.52,232.107c3.413,2.56,4.267,8.533,0.853,11.947
		C251.587,510.147,249.027,511,246.467,511z"/>
	<path d="M263.533,511c-2.56,0-5.12-0.853-6.827-3.413c-2.56-3.413-2.56-9.387,0.853-11.947
		c69.12-55.467,108.373-139.947,108.373-232.107c0-5.12,3.413-8.533,8.533-8.533c5.12,0,8.533,3.413,8.533,8.533
		c0,97.28-41.813,186.88-114.347,245.76C266.947,510.147,265.24,511,263.533,511z"/>
	<path d="M255,101.4c-28.16,0-51.2-23.04-51.2-51.2S226.84-1,255-1s51.2,23.04,51.2,51.2S283.16,101.4,255,101.4z M255,16.067
		c-18.773,0-34.133,15.36-34.133,34.133S236.227,84.333,255,84.333s34.133-15.36,34.133-34.133S273.773,16.067,255,16.067z"/>
	<path d="M314.733,237.933H195.267V178.2c0-33.28,26.453-59.733,59.733-59.733s59.733,26.453,59.733,59.733V237.933z
		 M212.333,220.867h85.333V178.2c0-23.893-18.773-42.667-42.667-42.667s-42.667,18.773-42.667,42.667V220.867z"/>
	<path d="M442.733,101.4c-28.16,0-51.2-23.04-51.2-51.2S414.573-1,442.733-1c28.16,0,51.2,23.04,51.2,51.2
		S470.893,101.4,442.733,101.4z M442.733,16.067c-18.773,0-34.133,15.36-34.133,34.133s15.36,34.133,34.133,34.133
		c18.773,0,34.133-15.36,34.133-34.133S461.507,16.067,442.733,16.067z"/>
	<path d="M502.467,237.933H383V178.2c0-33.28,26.453-59.733,59.733-59.733s59.733,26.453,59.733,59.733V237.933z M400.067,220.867
		H485.4V178.2c0-23.893-18.773-42.667-42.667-42.667c-23.893,0-42.667,18.773-42.667,42.667V220.867z"/>
	<path d="M75.8,101.4c-28.16,0-51.2-23.04-51.2-51.2S47.64-1,75.8-1S127,22.04,127,50.2S103.96,101.4,75.8,101.4z M75.8,16.067
		c-18.773,0-34.133,15.36-34.133,34.133S57.027,84.333,75.8,84.333s34.133-15.36,34.133-34.133S94.573,16.067,75.8,16.067z"/>
	<path d="M135.533,237.933H16.067V178.2c0-33.28,26.453-59.733,59.733-59.733s59.733,26.453,59.733,59.733V237.933z M33.133,220.867
		h85.333V178.2c0-23.893-18.773-42.667-42.667-42.667S33.133,154.307,33.133,178.2V220.867z"/>
</g>
</svg>